<svg width="60" height="58" viewBox="0 0 60 58" fill="none" xmlns="http://www.w3.org/2000/svg">
<path fill-rule="evenodd" clip-rule="evenodd" d="M24.8808 0.290969C14.2791 1.61934 3.76449 10.5679 0.898335 20.7013C0.0939221 23.5462 -0.12009 26.11 0.0590835 30.746C0.281184 36.4864 0.478398 37.317 2.59177 41.4099C8.05096 51.9821 18.0436 58 30.1378 58C42.5269 58 52.5145 51.8243 58.0639 40.7329C59.9353 36.9919 60 36.5942 60 28.8246C60 20.965 59.9552 20.6989 57.9787 16.8323C54.2683 9.57411 46.5334 3.01798 39.499 1.16801C35.1571 0.0265991 29.6364 -0.304448 24.8808 0.290969ZM29.2046 3.22161C29.2046 4.41245 29.5157 5.00786 30.1378 5.00786C30.7686 5.00786 31.071 4.40411 31.071 3.14539C31.071 1.29007 31.0809 1.28472 33.715 1.67352C36.7809 2.12664 42.3409 3.75392 43.1048 4.42198C43.3929 4.67384 43.2971 5.47348 42.8914 6.1987C42.3788 7.11564 42.3521 7.70689 42.8037 8.13916C43.256 8.57203 43.6834 8.28027 44.206 7.18232C44.6191 6.31361 45.1622 5.60328 45.4123 5.60328C46.1365 5.60328 52.0884 10.8942 53.5031 12.7959L54.7903 14.5262L53.1796 15.2282C51.5527 15.9373 51.34 17.4021 52.9233 16.9924C53.3936 16.871 54.2173 16.6513 54.7536 16.5048C55.9586 16.1761 57.5725 19.4461 58.449 23.9933C59.2839 28.3274 59.3132 28.2291 57.2004 28.2291C55.9562 28.2291 55.334 28.5268 55.334 29.1223C55.334 29.7248 55.9636 30.0154 57.2695 30.0154C59.1645 30.0154 59.1968 30.0624 58.7949 32.2482C58.2394 35.2717 56.7139 40.2524 56.0401 41.242C55.5847 41.9112 55.2295 41.8856 53.9629 41.0913C52.5289 40.1923 51.6013 40.3167 51.6013 41.4087C51.6013 41.6707 52.313 42.2429 53.1833 42.6787L54.7648 43.4724L52.6278 46.1512C50.4596 48.8681 46.5981 52.0458 45.4633 52.0458C45.1212 52.0458 44.6639 51.5099 44.4468 50.855C44.2296 50.2 43.6511 49.6642 43.1608 49.6642C42.0634 49.6642 42.0242 50.4924 43.047 52.072C43.6878 53.0616 43.6604 53.3748 42.8914 53.8523C41.2422 54.877 35.8944 56.2137 33.4463 56.2137C31.2072 56.2137 31.071 56.1084 31.071 54.3781C31.071 52.1 29.6052 52.3042 29.3191 54.6222C29.1424 56.0476 28.8649 56.2137 26.6595 56.2137C24.4422 56.2137 17.745 54.3757 16.8541 53.523C16.6581 53.3355 16.8373 52.6627 17.2522 52.0268C18.2526 50.493 18.2047 49.6642 17.1148 49.6642C16.6245 49.6642 16.0459 50.2 15.8288 50.855C15.6117 51.5099 15.1563 52.0458 14.8172 52.0458C13.7565 52.0458 9.26784 48.2965 7.36599 45.8213L5.54689 43.454L7.11092 42.6698C7.9707 42.2387 8.67433 41.6707 8.67433 41.4087C8.67433 40.3167 7.74674 40.1923 6.31273 41.0913C5.04607 41.8856 4.69083 41.9112 4.23544 41.242C3.56229 40.253 2.07105 35.2741 1.54224 32.2482C1.16274 30.0749 1.20318 30.0154 3.04717 30.0154C4.31632 30.0154 4.94155 29.7207 4.94155 29.1223C4.94155 28.5227 4.31507 28.2291 3.03722 28.2291H1.13226L1.56277 25.4009C2.27138 20.7441 4.28023 16.1684 5.47348 16.4929C6.0365 16.6459 6.88198 16.871 7.35231 16.9924C8.93562 17.4021 8.72285 15.9373 7.09599 15.2282L5.4853 14.5262L6.77248 12.7959C8.1872 10.8942 14.1391 5.60328 14.8633 5.60328C15.1134 5.60328 15.6565 6.31361 16.0696 7.18232C16.5922 8.28027 17.0196 8.57203 17.4719 8.13916C17.9235 7.70689 17.9142 7.1466 17.442 6.30171C17.0681 5.63305 16.762 4.95665 16.762 4.79827C16.762 4.07544 24.9735 1.61935 27.8048 1.49609C28.9595 1.44608 29.2046 1.74795 29.2046 3.22161ZM29.2046 18.6596V29.3342L36.0885 32.9609C42.2432 36.2036 44.1475 36.802 44.1301 35.4879C44.127 35.2616 41.1899 33.6028 37.6033 31.8016L31.0822 28.5268L31.0766 18.2559C31.0716 9.52529 30.931 7.98495 30.1378 7.98495C29.3427 7.98495 29.2046 9.56817 29.2046 18.6596Z" fill="#393D9A"/>
</svg>
