<svg width="237" height="58" viewBox="0 0 237 58" fill="none" xmlns="http://www.w3.org/2000/svg">
<path fill-rule="evenodd" clip-rule="evenodd" d="M24.8808 0.290969C14.2791 1.61934 3.76449 10.5679 0.898335 20.7013C0.0939221 23.5462 -0.12009 26.11 0.0590835 30.746C0.281184 36.4864 0.478398 37.317 2.59177 41.4099C8.05096 51.9821 18.0436 58 30.1378 58C42.5269 58 52.5145 51.8243 58.0639 40.7329C59.9353 36.9919 60 36.5942 60 28.8246C60 20.965 59.9552 20.6989 57.9787 16.8323C54.2683 9.57411 46.5334 3.01798 39.499 1.16801C35.1571 0.0265991 29.6364 -0.304448 24.8808 0.290969ZM29.2046 3.22161C29.2046 4.41245 29.5157 5.00786 30.1378 5.00786C30.7686 5.00786 31.071 4.40411 31.071 3.14539C31.071 1.29007 31.0809 1.28472 33.715 1.67352C36.7809 2.12664 42.3409 3.75392 43.1048 4.42198C43.3929 4.67384 43.2971 5.47348 42.8914 6.1987C42.3788 7.11564 42.3521 7.70689 42.8037 8.13916C43.256 8.57203 43.6834 8.28027 44.206 7.18232C44.6191 6.31361 45.1622 5.60328 45.4123 5.60328C46.1365 5.60328 52.0884 10.8942 53.5031 12.7959L54.7903 14.5262L53.1796 15.2282C51.5527 15.9373 51.34 17.4021 52.9233 16.9924C53.3936 16.871 54.2173 16.6513 54.7536 16.5048C55.9586 16.1761 57.5725 19.4461 58.449 23.9933C59.2839 28.3274 59.3132 28.2291 57.2004 28.2291C55.9562 28.2291 55.334 28.5268 55.334 29.1223C55.334 29.7248 55.9636 30.0154 57.2695 30.0154C59.1645 30.0154 59.1968 30.0624 58.7949 32.2482C58.2394 35.2717 56.7139 40.2524 56.0401 41.242C55.5847 41.9112 55.2295 41.8856 53.9629 41.0913C52.5289 40.1923 51.6013 40.3167 51.6013 41.4087C51.6013 41.6707 52.313 42.2429 53.1833 42.6787L54.7648 43.4724L52.6278 46.1512C50.4596 48.8681 46.5981 52.0458 45.4633 52.0458C45.1212 52.0458 44.6639 51.5099 44.4468 50.855C44.2296 50.2 43.6511 49.6642 43.1608 49.6642C42.0634 49.6642 42.0242 50.4924 43.047 52.072C43.6878 53.0616 43.6604 53.3748 42.8914 53.8523C41.2422 54.877 35.8944 56.2137 33.4463 56.2137C31.2072 56.2137 31.071 56.1084 31.071 54.3781C31.071 52.1 29.6052 52.3042 29.3191 54.6222C29.1424 56.0476 28.8649 56.2137 26.6595 56.2137C24.4422 56.2137 17.745 54.3757 16.8541 53.523C16.6581 53.3355 16.8373 52.6627 17.2522 52.0268C18.2526 50.493 18.2047 49.6642 17.1148 49.6642C16.6245 49.6642 16.0459 50.2 15.8288 50.855C15.6117 51.5099 15.1563 52.0458 14.8172 52.0458C13.7565 52.0458 9.26784 48.2965 7.36599 45.8213L5.54689 43.454L7.11092 42.6698C7.9707 42.2387 8.67433 41.6707 8.67433 41.4087C8.67433 40.3167 7.74674 40.1923 6.31273 41.0913C5.04607 41.8856 4.69083 41.9112 4.23544 41.242C3.56229 40.253 2.07105 35.2741 1.54224 32.2482C1.16274 30.0749 1.20318 30.0154 3.04717 30.0154C4.31632 30.0154 4.94155 29.7207 4.94155 29.1223C4.94155 28.5227 4.31507 28.2291 3.03722 28.2291H1.13226L1.56277 25.4009C2.27138 20.7441 4.28023 16.1684 5.47348 16.4929C6.0365 16.6459 6.88198 16.871 7.35231 16.9924C8.93562 17.4021 8.72285 15.9373 7.09599 15.2282L5.4853 14.5262L6.77248 12.7959C8.1872 10.8942 14.1391 5.60328 14.8633 5.60328C15.1134 5.60328 15.6565 6.31361 16.0696 7.18232C16.5922 8.28027 17.0196 8.57203 17.4719 8.13916C17.9235 7.70689 17.9142 7.1466 17.442 6.30171C17.0681 5.63305 16.762 4.95665 16.762 4.79827C16.762 4.07544 24.9735 1.61935 27.8048 1.49609C28.9595 1.44608 29.2046 1.74795 29.2046 3.22161ZM29.2046 18.6596V29.3342L36.0885 32.9609C42.2432 36.2036 44.1475 36.802 44.1301 35.4879C44.127 35.2616 41.1899 33.6028 37.6033 31.8016L31.0822 28.5268L31.0766 18.2559C31.0716 9.52529 30.931 7.98495 30.1378 7.98495C29.3427 7.98495 29.2046 9.56817 29.2046 18.6596Z" fill="#393D9A"/>
<path d="M81.82 39V18H85.03L94.21 33.33H92.53L101.56 18H104.77L104.8 39H101.11L101.08 23.79H101.86L94.18 36.6H92.44L84.64 23.79H85.54V39H81.82ZM117.312 39.21C115.672 39.21 114.212 38.86 112.932 38.16C111.652 37.44 110.642 36.46 109.902 35.22C109.162 33.98 108.792 32.57 108.792 30.99C108.792 29.39 109.162 27.98 109.902 26.76C110.642 25.52 111.652 24.55 112.932 23.85C114.212 23.15 115.672 22.8 117.312 22.8C118.972 22.8 120.442 23.15 121.722 23.85C123.022 24.55 124.032 25.51 124.752 26.73C125.492 27.95 125.862 29.37 125.862 30.99C125.862 32.57 125.492 33.98 124.752 35.22C124.032 36.46 123.022 37.44 121.722 38.16C120.442 38.86 118.972 39.21 117.312 39.21ZM117.312 36C118.232 36 119.052 35.8 119.772 35.4C120.492 35 121.052 34.42 121.452 33.66C121.872 32.9 122.082 32.01 122.082 30.99C122.082 29.95 121.872 29.06 121.452 28.32C121.052 27.56 120.492 26.98 119.772 26.58C119.052 26.18 118.242 25.98 117.342 25.98C116.422 25.98 115.602 26.18 114.882 26.58C114.182 26.98 113.622 27.56 113.202 28.32C112.782 29.06 112.572 29.95 112.572 30.99C112.572 32.01 112.782 32.9 113.202 33.66C113.622 34.42 114.182 35 114.882 35.4C115.602 35.8 116.412 36 117.312 36ZM134.398 39.21C133.058 39.21 131.768 39.04 130.528 38.7C129.308 38.34 128.338 37.91 127.618 37.41L129.058 34.56C129.778 35.02 130.638 35.4 131.638 35.7C132.638 36 133.638 36.15 134.638 36.15C135.818 36.15 136.668 35.99 137.188 35.67C137.728 35.35 137.998 34.92 137.998 34.38C137.998 33.94 137.818 33.61 137.458 33.39C137.098 33.15 136.628 32.97 136.048 32.85C135.468 32.73 134.818 32.62 134.098 32.52C133.398 32.42 132.688 32.29 131.968 32.13C131.268 31.95 130.628 31.7 130.048 31.38C129.468 31.04 128.998 30.59 128.638 30.03C128.278 29.47 128.098 28.73 128.098 27.81C128.098 26.79 128.388 25.91 128.968 25.17C129.548 24.41 130.358 23.83 131.398 23.43C132.458 23.01 133.708 22.8 135.148 22.8C136.228 22.8 137.318 22.92 138.418 23.16C139.518 23.4 140.428 23.74 141.148 24.18L139.708 27.03C138.948 26.57 138.178 26.26 137.398 26.1C136.638 25.92 135.878 25.83 135.118 25.83C133.978 25.83 133.128 26 132.568 26.34C132.028 26.68 131.758 27.11 131.758 27.63C131.758 28.11 131.938 28.47 132.298 28.71C132.658 28.95 133.128 29.14 133.708 29.28C134.288 29.42 134.928 29.54 135.628 29.64C136.348 29.72 137.058 29.85 137.758 30.03C138.458 30.21 139.098 30.46 139.678 30.78C140.278 31.08 140.758 31.51 141.118 32.07C141.478 32.63 141.658 33.36 141.658 34.26C141.658 35.26 141.358 36.13 140.758 36.87C140.178 37.61 139.348 38.19 138.268 38.61C137.188 39.01 135.898 39.21 134.398 39.21ZM151.668 39.21C150.128 39.21 148.738 38.87 147.498 38.19C146.278 37.51 145.318 36.56 144.618 35.34C143.918 34.1 143.568 32.65 143.568 30.99C143.568 29.33 143.918 27.89 144.618 26.67C145.318 25.45 146.278 24.5 147.498 23.82C148.738 23.14 150.128 22.8 151.668 22.8C153.048 22.8 154.258 23.1 155.298 23.7C156.358 24.28 157.188 25.17 157.788 26.37C158.408 27.57 158.718 29.11 158.718 30.99C158.718 32.85 158.398 34.39 157.758 35.61C157.138 36.81 156.298 37.71 155.238 38.31C154.178 38.91 152.988 39.21 151.668 39.21ZM152.088 36C152.988 36 153.798 35.8 154.518 35.4C155.238 35 155.808 34.42 156.228 33.66C156.648 32.9 156.858 32.01 156.858 30.99C156.858 29.95 156.648 29.06 156.228 28.32C155.808 27.56 155.238 26.98 154.518 26.58C153.798 26.18 152.988 25.98 152.088 25.98C151.188 25.98 150.378 26.18 149.658 26.58C148.958 26.98 148.398 27.56 147.978 28.32C147.558 29.06 147.348 29.95 147.348 30.99C147.348 32.01 147.558 32.9 147.978 33.66C148.398 34.42 148.958 35 149.658 35.4C150.378 35.8 151.188 36 152.088 36ZM156.798 44.82V35.28L157.098 31.02L156.978 26.76V22.98H160.548V44.82H156.798ZM167.848 39V21.3H160.888V18H178.708V21.3H171.748V39H167.848ZM181.274 39V22.98H185.024V39H181.274ZM183.164 20.34C182.464 20.34 181.884 20.12 181.424 19.68C180.984 19.24 180.764 18.71 180.764 18.09C180.764 17.45 180.984 16.92 181.424 16.5C181.884 16.06 182.464 15.84 183.164 15.84C183.864 15.84 184.434 16.05 184.874 16.47C185.334 16.87 185.564 17.38 185.564 18C185.564 18.66 185.344 19.22 184.904 19.68C184.464 20.12 183.884 20.34 183.164 20.34ZM210.166 22.8C211.446 22.8 212.576 23.05 213.556 23.55C214.556 24.05 215.336 24.82 215.896 25.86C216.456 26.88 216.736 28.2 216.736 29.82V39H212.986V30.3C212.986 28.88 212.676 27.82 212.056 27.12C211.436 26.42 210.546 26.07 209.386 26.07C208.566 26.07 207.836 26.25 207.196 26.61C206.576 26.97 206.086 27.5 205.726 28.2C205.386 28.9 205.216 29.79 205.216 30.87V39H201.466V30.3C201.466 28.88 201.156 27.82 200.536 27.12C199.916 26.42 199.026 26.07 197.866 26.07C197.046 26.07 196.316 26.25 195.676 26.61C195.056 26.97 194.566 27.5 194.206 28.2C193.866 28.9 193.696 29.79 193.696 30.87V39H189.946V22.98H193.516V27.24L192.886 25.98C193.426 24.94 194.206 24.15 195.226 23.61C196.266 23.07 197.446 22.8 198.766 22.8C200.266 22.8 201.566 23.17 202.666 23.91C203.786 24.65 204.526 25.77 204.886 27.27L203.416 26.76C203.936 25.56 204.796 24.6 205.996 23.88C207.196 23.16 208.586 22.8 210.166 22.8ZM229.088 39.21C227.308 39.21 225.748 38.86 224.408 38.16C223.088 37.44 222.058 36.46 221.318 35.22C220.598 33.98 220.238 32.57 220.238 30.99C220.238 29.39 220.588 27.98 221.288 26.76C222.008 25.52 222.988 24.55 224.228 23.85C225.488 23.15 226.918 22.8 228.518 22.8C230.078 22.8 231.468 23.14 232.688 23.82C233.908 24.5 234.868 25.46 235.568 26.7C236.268 27.94 236.618 29.4 236.618 31.08C236.618 31.24 236.608 31.42 236.588 31.62C236.588 31.82 236.578 32.01 236.558 32.19H223.208V29.7H234.578L233.108 30.48C233.128 29.56 232.938 28.75 232.538 28.05C232.138 27.35 231.588 26.8 230.888 26.4C230.208 26 229.418 25.8 228.518 25.8C227.598 25.8 226.788 26 226.088 26.4C225.408 26.8 224.868 27.36 224.468 28.08C224.088 28.78 223.898 29.61 223.898 30.57V31.17C223.898 32.13 224.118 32.98 224.558 33.72C224.998 34.46 225.618 35.03 226.418 35.43C227.218 35.83 228.138 36.03 229.178 36.03C230.078 36.03 230.888 35.89 231.608 35.61C232.328 35.33 232.968 34.89 233.528 34.29L235.538 36.6C234.818 37.44 233.908 38.09 232.808 38.55C231.728 38.99 230.488 39.21 229.088 39.21Z" fill="#393D9A"/>
</svg>
